<?xml version="1.0" encoding="UTF-8" standalone="no"?>
<!-- Created with Inkscape (http://www.inkscape.org/) -->

<svg
   xmlns:dc="http://purl.org/dc/elements/1.1/"
   xmlns:cc="http://creativecommons.org/ns#"
   xmlns:rdf="http://www.w3.org/1999/02/22-rdf-syntax-ns#"
   xmlns:svg="http://www.w3.org/2000/svg"
   xmlns="http://www.w3.org/2000/svg"
   xmlns:sodipodi="http://sodipodi.sourceforge.net/DTD/sodipodi-0.dtd"
   xmlns:inkscape="http://www.inkscape.org/namespaces/inkscape"
   width="100mm"
   height="100mm"
   viewBox="0 0 100 100"
   version="1.1"
   id="svg8"
   inkscape:version="0.92.4 (5da689c313, 2019-01-14)"
   sodipodi:docname="base-blue.svg"
   inkscape:export-filename="C:\Users\svent\Documents\SvenFrankson\space-tactic-advance\datas\textures\base-blue.png"
   inkscape:export-xdpi="130.048"
   inkscape:export-ydpi="130.048">
  <defs
     id="defs2" />
  <sodipodi:namedview
     id="base"
     pagecolor="#303030"
     bordercolor="#666666"
     borderopacity="1.0"
     inkscape:pageopacity="0"
     inkscape:pageshadow="2"
     inkscape:zoom="1.979899"
     inkscape:cx="97.768785"
     inkscape:cy="187.87566"
     inkscape:document-units="mm"
     inkscape:current-layer="layer1"
     showgrid="false"
     inkscape:window-width="1920"
     inkscape:window-height="1017"
     inkscape:window-x="-8"
     inkscape:window-y="450"
     inkscape:window-maximized="1"
     inkscape:pagecheckerboard="false" />
  <metadata
     id="metadata5">
    <rdf:RDF>
      <cc:Work
         rdf:about="">
        <dc:format>image/svg+xml</dc:format>
        <dc:type
           rdf:resource="http://purl.org/dc/dcmitype/StillImage" />
        <dc:title></dc:title>
      </cc:Work>
    </rdf:RDF>
  </metadata>
  <g
     inkscape:label="Calque 1"
     inkscape:groupmode="layer"
     id="layer1"
     transform="translate(0,-197)">
    <path
       style="fill:#259294;fill-opacity:1;stroke:#ffffff;stroke-width:0.49751198;stroke-linecap:round;stroke-linejoin:round;stroke-miterlimit:4;stroke-dasharray:none;stroke-opacity:1;paint-order:normal"
       d="M 50,197.24875 A 49.751196,49.751197 0 0 0 0.24875599,247 49.751196,49.751197 0 0 0 50,296.75124 49.751196,49.751197 0 0 0 99.751244,247 49.751196,49.751197 0 0 0 50,197.24875 Z m 0,4.97533 A 39.800956,39.800956 0 0 1 89.801098,242.02466 39.800956,39.800956 0 0 1 50,281.82577 39.800956,39.800956 0 0 1 10.198902,242.02466 39.800956,39.800956 0 0 1 50,202.22408 Z m -40.8988997,21.16315 2.3426637,1.35233 a 42.288522,42.288522 0 0 0 -3.732527,17.2851 42.288522,42.288522 0 0 0 39.801098,42.18233 v 9.89924 A 47.263636,47.263637 0 0 1 2.736421,247 47.263636,47.263637 0 0 1 9.1011003,223.38723 Z m 81.7839177,0.008 a 47.263636,47.263637 0 0 1 6.378563,23.60506 47.263636,47.263637 0 0 1 -44.775916,47.1592 V 284.15248 A 42.288522,42.288522 0 0 0 92.28825,242.02466 42.288522,42.288522 0 0 0 88.540298,224.7483 Z"
       id="path815"
       inkscape:connector-curvature="0" />
  </g>
</svg>
